<svg viewBox="0 0 234 70" xmlns="http://www.w3.org/2000/svg"><path d="m0 0h30v40c-12 10-15 30-15 30v-22c5 0 5-8 0-8v-25h-15z"/><path d="m0 15v25c12 10 15 30 15 30v-22c-5 0-5-8 0-8v-25h-15z" fill="#e6e6e6"/><path transform="translate(34)" d="m188.16 69.639v-17.595c0-3.762-2.069-6.007-5.417-6.007-3.834 0.06-6.208 3.094-6.208 7.402v16.2h-10.833v-17.595c0-3.762-2.069-6.007-5.417-6.007-3.834 0.06-6.269 3.094-6.269 7.402v16.2h-10.772v-32.825h10.772v5.4c2.252-3.822 5.965-5.824 10.712-5.824 5.356 0 9.312 2.73 10.955 7.341 2.13-4.854 6.147-7.341 11.503-7.341 7.121 0 11.808 4.854 11.808 12.559v20.69h-10.834zm-61.29-8.373c2.861 0 5.113-1.153 6.452-3.701l7.973 4.55c-2.617 5.036-7.973 7.888-14.972 7.888-10.164 0-16.92-6.613-16.92-16.625 0-10.193 6.816-16.928 17.041-16.928 6.634 0 11.868 2.852 14.729 7.767l-7.851 4.55c-1.461-2.123-3.652-3.398-6.452-3.398-3.895 0-6.573 3.216-6.573 7.949 0 4.793 2.678 7.948 6.573 7.948zm-49.875 8.041c-7.106 0-15.381-2.135-21.028-5.532l5.744-10.869c3.991 2.814 9.248 4.367 14.408 4.367 11.585 0 17.037-7.958 16.842-20.381-3.407 5.241-9.054 8.25-16.939 8.25-13.24 0-21.612-8.735-21.612-22.031 0-14.169 9.735-23.098 24.532-23.098 17.718 0 28.427 12.617 28.427 33.386 0 21.739-11.78 35.908-30.374 35.908zm2.629-56.872c-6.912 0-11.293 3.883-11.293 10.773 0 6.503 4.089 10.482 10.903 10.482 7.594 0 11.877-4.756 11.877-10.773 0-5.338-3.504-10.482-11.487-10.482zm-48.29 11.744c13.435 0 21.807 8.637 21.807 21.933 0 14.267-9.832 23.195-24.63 23.195-17.815 0-28.524-12.616-28.524-33.482 0-21.74 11.877-35.812 30.374-35.812 7.204 0 15.576 2.038 21.223 5.435l-5.842 10.87c-3.991-2.718-9.248-4.271-14.408-4.271-11.585 0-17.231 7.861-16.939 20.284 3.407-5.241 9.151-8.152 16.939-8.152zm-3.504 32.609c6.912 0 11.39-3.882 11.39-10.773 0-6.502-4.089-10.481-11.001-10.481-7.593 0-11.974 4.755-11.877 10.772-0.097 5.338 3.505 10.482 11.488 10.482z" fill-rule="evenodd"/></svg>
