<?xml version="1.0" encoding="utf-8"?><!DOCTYPE svg PUBLIC "-//W3C//DTD SVG 1.1//EN" "http://www.w3.org/Graphics/SVG/1.1/DTD/svg11.dtd"><svg version="1.1" preserveAspectRatio="xMinYMin meet" xmlns="http://www.w3.org/2000/svg" xmlns:xlink="http://www.w3.org/1999/xlink" x="0px" y="0px" width="31px" height="26px" viewBox="0 0 31 26"><path d="M5 0h7v1h-7v-1z" fill="rgb(148,117,84)"/><path d="M3 1h2v1h-2v-1z" fill="rgb(148,117,84)"/><path d="M5 1h7v1h1v1h1v1h3v-1h1v2h-5v-1h-1v-1h-1v-1h-6v-1z" fill="rgb(172,141,92)"/><path d="M12 1h1v1h-1v-1z" fill="rgb(148,117,84)"/><path d="M2 2h1v1h-1v-1z" fill="rgb(148,117,84)"/><path d="M3 2h2v1h-1v1h-1v1h-1v-2h1v-1z" fill="rgb(172,141,92)"/><path d="M5 2h6v1h1v1h1v1h5v-1h1v1h1v2h3v1h1v2h3v1h-1v13h-21v-13h-1v-1h-1v-1h-1v-4h1v-1h1v-1h1v-1z" fill="rgb(223,189,148)"/><path d="M13 2h1v1h-1v-1z" fill="rgb(148,117,84)"/><path d="M17 2h1v1h-1v-1z" fill="rgb(148,117,84)"/><path d="M1 3h1v2h-1v-2z" fill="rgb(148,117,84)"/><path d="M6 3h4v1h1v1h1v1h7v2h3v1h1v2h2v12h-19v-13h-1v-1h-1v-1h-1v-2h1v-1h1v-1h1v-1z" fill="rgb(242,211,176)"/><path d="M14 3h3v1h-3v-1z" fill="rgb(148,117,84)"/><path d="M0 5h1v4h-1v-4z" fill="rgb(148,117,84)"/><path d="M1 5h1v4h-1v-4z" fill="rgb(172,141,92)"/><path d="M1 9h1v2h-1v-2z" fill="rgb(148,117,84)"/><path d="M2 9h1v1h1v1h1v13h21v-13h1v-1h1v2h-1v13h-23v-13h-1v-1h-1v-2z" fill="rgb(172,141,92)"/><path d="M2 11h1v1h-1v-1z" fill="rgb(148,117,84)"/><path d="M28 11h1v1h-1v-1z" fill="rgb(148,117,84)"/><path d="M3 12h1v13h-1v-13z" fill="rgb(148,117,84)"/><path d="M27 12h1v13h-1v-13z" fill="rgb(148,117,84)"/><path d="M4 25h23v1h-23v-1z" fill="rgb(148,117,84)"/></svg>